<?xml version="1.0" encoding="UTF-8" standalone="no"?>
<!DOCTYPE svg PUBLIC "-//W3C//DTD SVG 1.1//EN"
 "http://www.w3.org/Graphics/SVG/1.1/DTD/svg11.dtd">
<!-- Generated by graphviz version 2.47.0 (20210316.0004)
 -->
<!-- Title: dependencies Pages: 1 -->
<svg width="1096pt" height="211pt"
 viewBox="0.00 0.00 1096.00 211.00" xmlns="http://www.w3.org/2000/svg" xmlns:xlink="http://www.w3.org/1999/xlink">
<g id="graph0" class="graph" transform="scale(1 1) rotate(0) translate(4 207)">
<title>dependencies</title>
<polygon fill="white" stroke="transparent" points="-4,4 -4,-207 1092,-207 1092,4 -4,4"/>
<text text-anchor="start" x="523.01" y="-42.4" font-family="Times-12" font-weight="bold" font-size="14.00">Legend</text>
<polygon fill="#ffffb3" stroke="transparent" points="310,-10 310,-30 330,-30 330,-10 310,-10"/>
<text text-anchor="start" x="333.63" y="-15.4" font-family="Times-12" font-size="14.00"> &#160;Declarations</text>
<polygon fill="#8dd3c7" stroke="transparent" points="423,-10 423,-30 443,-30 443,-10 423,-10"/>
<text text-anchor="start" x="446.73" y="-15.4" font-family="Times-12" font-size="14.00"> &#160;Module</text>
<polygon fill="#80b1d3" stroke="transparent" points="509,-10 509,-30 529,-30 529,-10 509,-10"/>
<text text-anchor="start" x="532.78" y="-15.4" font-family="Times-12" font-size="14.00"> &#160;Bootstrap</text>
<polygon fill="#fdb462" stroke="transparent" points="606,-10 606,-30 626,-30 626,-10 606,-10"/>
<text text-anchor="start" x="629.67" y="-15.4" font-family="Times-12" font-size="14.00"> &#160;Providers</text>
<polygon fill="#fb8072" stroke="transparent" points="702,-10 702,-30 722,-30 722,-10 702,-10"/>
<text text-anchor="start" x="725.73" y="-15.4" font-family="Times-12" font-size="14.00"> &#160;Exports</text>
<g id="clust1" class="cluster">
<title>cluster_AppModule</title>
<polygon fill="none" stroke="black" stroke-dasharray="1,5" points="8,-70 8,-195 1080,-195 1080,-70 8,-70"/>
</g>
<g id="clust3" class="cluster">
<title>cluster_AppModule_imports</title>
<polygon fill="none" stroke="black" points="154,-78 154,-130 1072,-130 1072,-78 154,-78"/>
</g>
<g id="clust6" class="cluster">
<title>cluster_AppModule_providers</title>
<polygon fill="none" stroke="black" points="16,-78 16,-130 146,-130 146,-78 16,-78"/>
</g>
<!-- AnalysisModule -->
<g id="node1" class="node">
<title>AnalysisModule</title>
<polygon fill="#8dd3c7" stroke="black" points="1064.04,-122 1061.04,-126 1040.04,-126 1037.04,-122 955.96,-122 955.96,-86 1064.04,-86 1064.04,-122"/>
<text text-anchor="middle" x="1010" y="-99.8" font-family="Times,serif" font-size="14.00">AnalysisModule</text>
</g>
<!-- AppModule -->
<g id="node8" class="node">
<title>AppModule</title>
<polygon fill="#8dd3c7" stroke="black" points="574.66,-187 571.66,-191 550.66,-191 547.66,-187 491.34,-187 491.34,-151 574.66,-151 574.66,-187"/>
<text text-anchor="middle" x="533" y="-164.8" font-family="Times,serif" font-size="14.00">AppModule</text>
</g>
<!-- AnalysisModule&#45;&gt;AppModule -->
<g id="edge1" class="edge">
<title>AnalysisModule&#45;&gt;AppModule</title>
<path fill="none" stroke="black" d="M1010,-122.29C1010,-144.21 1010,-178 1010,-178 1010,-178 584.91,-178 584.91,-178"/>
<polygon fill="black" stroke="black" points="584.91,-174.5 574.91,-178 584.91,-181.5 584.91,-174.5"/>
</g>
<!-- AuthModule -->
<g id="node2" class="node">
<title>AuthModule</title>
<polygon fill="#8dd3c7" stroke="black" points="937.55,-122 934.55,-126 913.55,-126 910.55,-122 850.45,-122 850.45,-86 937.55,-86 937.55,-122"/>
<text text-anchor="middle" x="894" y="-99.8" font-family="Times,serif" font-size="14.00">AuthModule</text>
</g>
<!-- AuthModule&#45;&gt;AppModule -->
<g id="edge2" class="edge">
<title>AuthModule&#45;&gt;AppModule</title>
<path fill="none" stroke="black" d="M894,-122.11C894,-141.34 894,-169 894,-169 894,-169 584.76,-169 584.76,-169"/>
<polygon fill="black" stroke="black" points="584.76,-165.5 574.76,-169 584.76,-172.5 584.76,-165.5"/>
</g>
<!-- PatientInformationModule -->
<g id="node3" class="node">
<title>PatientInformationModule</title>
<polygon fill="#8dd3c7" stroke="black" points="832.8,-122 829.8,-126 808.8,-126 805.8,-122 667.2,-122 667.2,-86 832.8,-86 832.8,-122"/>
<text text-anchor="middle" x="750" y="-99.8" font-family="Times,serif" font-size="14.00">PatientInformationModule</text>
</g>
<!-- PatientInformationModule&#45;&gt;AppModule -->
<g id="edge3" class="edge">
<title>PatientInformationModule&#45;&gt;AppModule</title>
<path fill="none" stroke="black" d="M750,-122.03C750,-138.4 750,-160 750,-160 750,-160 584.84,-160 584.84,-160"/>
<polygon fill="black" stroke="black" points="584.84,-156.5 574.84,-160 584.84,-163.5 584.84,-156.5"/>
</g>
<!-- SamplesModule -->
<g id="node4" class="node">
<title>SamplesModule</title>
<polygon fill="#8dd3c7" stroke="black" points="649.49,-122 646.49,-126 625.49,-126 622.49,-122 542.51,-122 542.51,-86 649.49,-86 649.49,-122"/>
<text text-anchor="middle" x="596" y="-99.8" font-family="Times,serif" font-size="14.00">SamplesModule</text>
</g>
<!-- SamplesModule&#45;&gt;AppModule -->
<g id="edge4" class="edge">
<title>SamplesModule&#45;&gt;AppModule</title>
<path fill="none" stroke="black" d="M558.67,-122.11C558.67,-122.11 558.67,-140.99 558.67,-140.99"/>
<polygon fill="black" stroke="black" points="555.17,-140.99 558.67,-150.99 562.17,-140.99 555.17,-140.99"/>
</g>
<!-- UploadsModule -->
<g id="node5" class="node">
<title>UploadsModule</title>
<polygon fill="#8dd3c7" stroke="black" points="524.21,-122 521.21,-126 500.21,-126 497.21,-122 417.79,-122 417.79,-86 524.21,-86 524.21,-122"/>
<text text-anchor="middle" x="471" y="-99.8" font-family="Times,serif" font-size="14.00">UploadsModule</text>
</g>
<!-- UploadsModule&#45;&gt;AppModule -->
<g id="edge5" class="edge">
<title>UploadsModule&#45;&gt;AppModule</title>
<path fill="none" stroke="black" d="M507.64,-122.11C507.64,-122.11 507.64,-140.99 507.64,-140.99"/>
<polygon fill="black" stroke="black" points="504.14,-140.99 507.64,-150.99 511.14,-140.99 504.14,-140.99"/>
</g>
<!-- UsersModule -->
<g id="node6" class="node">
<title>UsersModule</title>
<polygon fill="#8dd3c7" stroke="black" points="399.92,-122 396.92,-126 375.92,-126 372.92,-122 308.08,-122 308.08,-86 399.92,-86 399.92,-122"/>
<text text-anchor="middle" x="354" y="-99.8" font-family="Times,serif" font-size="14.00">UsersModule</text>
</g>
<!-- UsersModule&#45;&gt;AppModule -->
<g id="edge6" class="edge">
<title>UsersModule&#45;&gt;AppModule</title>
<path fill="none" stroke="black" d="M354,-122.03C354,-138.4 354,-160 354,-160 354,-160 481.03,-160 481.03,-160"/>
<polygon fill="black" stroke="black" points="481.03,-163.5 491.03,-160 481.03,-156.5 481.03,-163.5"/>
</g>
<!-- WorkspacesModule -->
<g id="node7" class="node">
<title>WorkspacesModule</title>
<polygon fill="#8dd3c7" stroke="black" points="289.96,-122 286.96,-126 265.96,-126 262.96,-122 162.04,-122 162.04,-86 289.96,-86 289.96,-122"/>
<text text-anchor="middle" x="226" y="-99.8" font-family="Times,serif" font-size="14.00">WorkspacesModule</text>
</g>
<!-- WorkspacesModule&#45;&gt;AppModule -->
<g id="edge7" class="edge">
<title>WorkspacesModule&#45;&gt;AppModule</title>
<path fill="none" stroke="black" d="M226,-122.11C226,-141.34 226,-169 226,-169 226,-169 481.28,-169 481.28,-169"/>
<polygon fill="black" stroke="black" points="481.28,-172.5 491.28,-169 481.28,-165.5 481.28,-172.5"/>
</g>
<!-- AppService -->
<g id="node9" class="node">
<title>AppService</title>
<ellipse fill="#fdb462" stroke="black" cx="81" cy="-104" rx="56.74" ry="18"/>
<text text-anchor="middle" x="81" y="-99.8" font-family="Times,serif" font-size="14.00">AppService</text>
</g>
<!-- AppService&#45;&gt;AppModule -->
<g id="edge8" class="edge">
<title>AppService&#45;&gt;AppModule</title>
<path fill="none" stroke="black" d="M81,-122.29C81,-144.21 81,-178 81,-178 81,-178 481.29,-178 481.29,-178"/>
<polygon fill="black" stroke="black" points="481.29,-181.5 491.29,-178 481.29,-174.5 481.29,-181.5"/>
</g>
</g>
</svg>
